<?xml version="1.0" encoding="UTF-8" standalone="no"?>
<!-- Created with Inkscape (http://www.inkscape.org/) -->

<svg
   width="48"
   height="48"
   viewBox="0 0 12.7 12.7"
   version="1.1"
   id="svg2433"
   inkscape:export-filename="graphEditor.png"
   inkscape:export-xdpi="96"
   inkscape:export-ydpi="96"
   sodipodi:docname="graphEditor.svg"
   xmlns:inkscape="http://www.inkscape.org/namespaces/inkscape"
   xmlns:sodipodi="http://sodipodi.sourceforge.net/DTD/sodipodi-0.dtd"
   xmlns="http://www.w3.org/2000/svg"
   xmlns:svg="http://www.w3.org/2000/svg">
  <sodipodi:namedview
     id="namedview2435"
     pagecolor="#ffffff"
     bordercolor="#000000"
     borderopacity="0.25"
     inkscape:showpageshadow="2"
     inkscape:pageopacity="0.0"
     inkscape:pagecheckerboard="0"
     inkscape:deskcolor="#d1d1d1"
     inkscape:document-units="mm"
     showgrid="false"
     inkscape:zoom="7.1083738"
     inkscape:cx="14.700972"
     inkscape:cy="30.316358"
     inkscape:window-width="958"
     inkscape:window-height="1014"
     inkscape:window-x="0"
     inkscape:window-y="0"
     inkscape:window-maximized="1"
     inkscape:current-layer="svg2433" />
  <defs
     id="defs2430">
    <inkscape:path-effect
       effect="fillet_chamfer"
       id="path-effect3811"
       is_visible="true"
       lpeversion="1"
       nodesatellites_param="F,0,1,1,0,2.6458333,0,1 @ F,0,1,1,0,2.6458333,0,1 @ F,0,1,1,0,2.6458333,0,1 @ F,0,1,1,0,2.6458333,0,1 | F,0,0,1,0,0,0,1 @ F,0,0,1,0,0,0,1 @ F,0,0,1,0,0,0,1 @ F,0,0,1,0,0,0,1 @ F,0,0,1,0,0,0,1 @ F,0,0,1,0,0,0,1 @ F,0,0,1,0,0,0,1 @ F,0,0,1,0,0,0,1 @ F,0,0,1,0,0,0,1 @ F,0,0,1,0,0,0,1 @ F,0,0,1,0,0,0,1 | F,0,0,1,0,0,0,1 @ F,0,0,1,0,0,0,1 @ F,0,0,1,0,0,0,1 @ F,0,0,1,0,0,0,1 @ F,0,0,1,0,0,0,1 @ F,0,0,1,0,0,0,1 | F,0,0,1,0,0,0,1 @ F,0,0,1,0,0,0,1 @ F,0,0,1,0,0,0,1 @ F,0,0,1,0,0,0,1 @ F,0,0,1,0,0,0,1 @ F,0,0,1,0,0,0,1 @ F,0,0,1,0,0,0,1 @ F,0,0,1,0,0,0,1 @ F,0,0,1,0,0,0,1 @ F,0,0,1,0,0,0,1 @ F,0,0,1,0,0,0,1 @ F,0,0,1,0,0,0,1 @ F,0,0,1,0,0,0,1 @ F,0,0,1,0,0,0,1 @ F,0,0,1,0,0,0,1 @ F,0,0,1,0,0,0,1 @ F,0,0,1,0,0,0,1 @ F,0,0,1,0,0,0,1 @ F,0,0,1,0,0,0,1 @ F,0,0,1,0,0,0,1 @ F,0,0,1,0,0,0,1 @ F,0,0,1,0,0,0,1 @ F,0,0,1,0,0,0,1 @ F,0,0,1,0,0,0,1 @ F,0,0,1,0,0,0,1 @ F,0,0,1,0,0,0,1 @ F,0,0,1,0,0,0,1 @ F,0,0,1,0,0,0,1 @ F,0,0,1,0,0,0,1"
       unit="px"
       method="auto"
       mode="F"
       radius="10"
       chamfer_steps="1"
       flexible="false"
       use_knot_distance="true"
       apply_no_radius="true"
       apply_with_radius="true"
       only_selected="true"
       hide_knots="false" />
  </defs>
  <path
     id="rect3650"
     style="display:inline;fill:#999292;fill-opacity:1;stroke-width:0.3"
     d="M 0,2.6458333 V 10.054167 A 2.6458333,2.6458333 45 0 0 2.6458333,12.7 H 10.054167 A 2.6458333,2.6458333 135 0 0 12.7,10.054167 V 2.6458333 A 2.6458333,2.6458333 45 0 0 10.054167,0 H 2.6458333 A 2.6458333,2.6458333 135 0 0 0,2.6458333 Z M 6.3931976,1.0223835 H 7.3915933 V 5.5960408 H 6.1756993 V 2.951097 c 0,-0.1110265 0.0025,-0.2564334 0.00786,-0.435785 0.010725,-0.1793516 0.018204,-0.3377106 0.02358,-0.4743591 -0.026833,0.025622 -0.085648,0.072418 -0.1768806,0.1407435 -0.085868,0.064054 -0.1659478,0.1218199 -0.2410834,0.1730632 L 5.128825,2.7780342 4.5418417,2.1952499 Z M 2.6799398,6.051827 H 10.02006 c 0.16511,0 0.297656,0.1330627 0.297656,0.298173 0,0.1651102 -0.132546,0.298173 -0.297656,0.298173 H 2.6799398 c -0.1651104,0 -0.2976563,-0.1330628 -0.2976563,-0.298173 0,-0.1651103 0.1325459,-0.298173 0.2976563,-0.298173 z m 4.0666806,1.2190471 c 0.2492127,0 0.4862481,0.023908 0.7110283,0.072774 0.2247811,0.048866 0.4572724,0.1297892 0.696712,0.2421789 L 7.8238996,8.3708203 C 7.6284386,8.2877494 7.4438765,8.2181828 7.2679615,8.1644311 7.0920466,8.105793 6.9131059,8.0773421 6.7323045,8.0773421 c -0.3225107,0 -0.4831652,0.087738 -0.4831652,0.2636532 0,0.063526 0.019369,0.1216192 0.058456,0.1753702 0.043979,0.048866 0.1237084,0.1036098 0.240986,0.1622482 0.122164,0.058638 0.3011038,0.1360987 0.535657,0.233828 0.2296661,0.092845 0.4279724,0.1908609 0.5941143,0.293478 0.1661427,0.09773 0.2926095,0.2219277 0.380567,0.373409 0.092845,0.1465959 0.13958,0.3403585 0.13958,0.5797983 0,0.405581 -0.1447536,0.717804 -0.4330589,0.937698 -0.2834186,0.215009 -0.7084806,0.322111 -1.2753174,0.322111 -0.2785319,0 -0.5178387,-0.01939 -0.7181861,-0.05845 -0.2003469,-0.03421 -0.4009247,-0.0923 -0.6012721,-0.175361 V 10.2832 c 0.2150065,0.09773 0.4474995,0.178655 0.696712,0.242179 0.2492127,0.06353 0.4691548,0.09544 0.6597292,0.09544 0.2150065,0 0.3665756,-0.03192 0.4545331,-0.09544 0.092845,-0.06353 0.13958,-0.146721 0.13958,-0.249337 0,-0.06841 -0.020547,-0.12997 -0.059649,-0.183723 C 7.0273669,10.038568 6.9499075,9.9782018 6.8277444,9.9097905 6.7055814,9.8413791 6.5152831,9.7536409 6.2562973,9.6461374 6.0070846,9.538634 5.8019644,9.4326094 5.6407092,9.3299925 5.4794539,9.222489 5.3586075,9.0960211 5.2804232,8.9494254 5.2022388,8.7979432 5.1635091,8.6099163 5.1635091,8.3851361 c 0,-0.3713758 0.1447536,-0.6506051 0.433059,-0.8362932 C 5.884873,7.3631556 6.267741,7.2708741 6.7466204,7.2708741 Z"
     sodipodi:nodetypes="cccccccccscccccccssssssssscccsscccccscscccsscscscccsss"
     inkscape:original-d="M 0,0 V 12.7 H 12.7 V 0 Z M 6.3931976,1.0223835 H 7.3915933 V 5.5960408 H 6.1756993 V 2.951097 c 0,-0.1110265 0.0025,-0.2564334 0.00786,-0.435785 0.010725,-0.1793516 0.018204,-0.3377106 0.02358,-0.4743591 -0.026833,0.025622 -0.085648,0.072418 -0.1768806,0.1407435 -0.085868,0.064054 -0.1659478,0.1218199 -0.2410834,0.1730632 L 5.128825,2.7780342 4.5418417,2.1952499 Z M 2.6799398,6.051827 H 10.02006 c 0.16511,0 0.297656,0.1330627 0.297656,0.298173 0,0.1651102 -0.132546,0.298173 -0.297656,0.298173 H 2.6799398 c -0.1651104,0 -0.2976563,-0.1330628 -0.2976563,-0.298173 0,-0.1651103 0.1325459,-0.298173 0.2976563,-0.298173 z m 4.0666806,1.2190471 c 0.2492127,0 0.4862481,0.023908 0.7110283,0.072774 0.2247811,0.048866 0.4572724,0.1297892 0.696712,0.2421789 L 7.8238996,8.3708203 C 7.6284386,8.2877494 7.4438765,8.2181828 7.2679615,8.1644311 7.0920466,8.105793 6.9131059,8.0773421 6.7323045,8.0773421 c -0.3225107,0 -0.4831652,0.087738 -0.4831652,0.2636532 0,0.063526 0.019369,0.1216192 0.058456,0.1753702 0.043979,0.048866 0.1237084,0.1036098 0.240986,0.1622482 0.122164,0.058638 0.3011038,0.1360987 0.535657,0.233828 0.2296661,0.092845 0.4279724,0.1908609 0.5941143,0.293478 0.1661427,0.09773 0.2926095,0.2219277 0.380567,0.373409 0.092845,0.1465959 0.13958,0.3403585 0.13958,0.5797983 0,0.405581 -0.1447536,0.717804 -0.4330589,0.937698 -0.2834186,0.215009 -0.7084806,0.322111 -1.2753174,0.322111 -0.2785319,0 -0.5178387,-0.01939 -0.7181861,-0.05845 -0.2003469,-0.03421 -0.4009247,-0.0923 -0.6012721,-0.175361 V 10.2832 c 0.2150065,0.09773 0.4474995,0.178655 0.696712,0.242179 0.2492127,0.06353 0.4691548,0.09544 0.6597292,0.09544 0.2150065,0 0.3665756,-0.03192 0.4545331,-0.09544 0.092845,-0.06353 0.13958,-0.146721 0.13958,-0.249337 0,-0.06841 -0.020547,-0.12997 -0.059649,-0.183723 C 7.0273669,10.038568 6.9499075,9.9782018 6.8277444,9.9097905 6.7055814,9.8413791 6.5152831,9.7536409 6.2562973,9.6461374 6.0070846,9.538634 5.8019644,9.4326094 5.6407092,9.3299925 5.4794539,9.222489 5.3586075,9.0960211 5.2804232,8.9494254 5.2022388,8.7979432 5.1635091,8.6099163 5.1635091,8.3851361 c 0,-0.3713758 0.1447536,-0.6506051 0.433059,-0.8362932 C 5.884873,7.3631556 6.267741,7.2708741 6.7466204,7.2708741 Z"
     inkscape:path-effect="#path-effect3811" />
</svg>
