<?xml version="1.0" encoding="UTF-8" standalone="no"?>
<!-- Created with Inkscape (http://www.inkscape.org/) -->

<svg
   width="48"
   height="48"
   viewBox="0 0 48 48"
   version="1.1"
   id="svg5"
   inkscape:export-filename="textEditor.png"
   inkscape:export-xdpi="96"
   inkscape:export-ydpi="96"
   sodipodi:docname="textEditor.svg"
   inkscape:version="1.2.2 (b0a8486541, 2022-12-01)"
   xmlns:inkscape="http://www.inkscape.org/namespaces/inkscape"
   xmlns:sodipodi="http://sodipodi.sourceforge.net/DTD/sodipodi-0.dtd"
   xmlns="http://www.w3.org/2000/svg"
   xmlns:svg="http://www.w3.org/2000/svg">
  <sodipodi:namedview
     id="namedview7"
     pagecolor="#ffffff"
     bordercolor="#000000"
     borderopacity="0.25"
     inkscape:showpageshadow="2"
     inkscape:pageopacity="0.0"
     inkscape:pagecheckerboard="0"
     inkscape:deskcolor="#d1d1d1"
     inkscape:document-units="px"
     showgrid="false"
     inkscape:zoom="6.043845"
     inkscape:cx="48.479073"
     inkscape:cy="63.287527"
     inkscape:window-width="1920"
     inkscape:window-height="1042"
     inkscape:window-x="0"
     inkscape:window-y="0"
     inkscape:window-maximized="1"
     inkscape:current-layer="svg5" />
  <defs
     id="defs2" />
  <path
     id="rect446"
     style="fill:#999999;stroke-width:0.4"
     d="M 9.96875,0 C 4.4461036,0 0,4.4461036 0,9.96875 v 28.0625 C 0,43.5539 4.4461036,48 9.96875,48 h 28.0625 C 43.5539,48 48,43.5539 48,38.03125 V 9.96875 C 48,4.4461036 43.5539,0 38.03125,0 Z M 6.9414064,9.1023436 H 39.18125 c 1.041506,0 1.879686,0.8381804 1.879686,1.8796874 0,1.041508 -0.83818,1.880469 -1.879686,1.880469 H 6.9414064 c -1.041508,0 -1.8804688,-0.838961 -1.8804688,-1.880469 0,-1.041507 0.8389608,-1.8796874 1.8804688,-1.8796874 z M 7.4093752,18.157031 H 35.342188 c 1.041507,0 1.879687,0.838962 1.879687,1.880469 0,1.041508 -0.83818,1.879688 -1.879687,1.879688 H 7.4093752 c -1.041508,0 -1.8796876,-0.83818 -1.8796876,-1.879688 0,-1.041507 0.8381796,-1.880469 1.8796876,-1.880469 z m 0,8.8 H 27.649219 c 1.041507,0 1.880469,0.838962 1.880469,1.880469 0,1.041508 -0.838962,1.879688 -1.880469,1.879688 H 7.4093752 c -1.041508,0 -1.8796876,-0.83818 -1.8796876,-1.879688 0,-1.041507 0.8381796,-1.880469 1.8796876,-1.880469 z m 0.8,8.8 H 42.04922 c 1.041504,0 1.880468,0.838962 1.880468,1.880469 0,1.041508 -0.838964,1.879688 -1.880468,1.879688 H 8.2093752 c -1.041508,0 -1.8796876,-0.83818 -1.8796876,-1.879688 0,-1.041507 0.8381796,-1.880469 1.8796876,-1.880469 z" />
</svg>
